<svg fill="#000000" xmlns="http://www.w3.org/2000/svg" data-name="Layer 1" viewBox="0 0 100 100" x="0px" y="0px"><title>Artboard 12</title><path d="M28.81,29.29,75.25,17.92A11.17,11.17,0,0,1,88.86,26.6a2.5,2.5,0,0,1-4.91,1,6.17,6.17,0,0,0-7.52-4.79L30,34.15a2.5,2.5,0,1,1-1.19-4.86ZM61.13,1.86a11.07,11.07,0,0,0-8.68,1.3L11.21,28.62a2.5,2.5,0,1,0,2.63,4.25L55.07,7.42A6.17,6.17,0,0,1,63.7,9.67a2.5,2.5,0,0,0,4.37-2.43A11.07,11.07,0,0,0,61.13,1.86Zm.77,65.9A11.9,11.9,0,1,1,50,55.86,11.91,11.91,0,0,1,61.9,67.76Zm-5,0a6.9,6.9,0,1,0-6.9,6.9A6.91,6.91,0,0,0,56.9,67.76ZM96.53,48.1V87.43A11.09,11.09,0,0,1,85.46,98.5H14.54A11.09,11.09,0,0,1,3.47,87.43V48.1A11.09,11.09,0,0,1,14.54,37H85.46A11.09,11.09,0,0,1,96.53,48.1Zm-5,0A6.08,6.08,0,0,0,85.46,42H14.54A6.08,6.08,0,0,0,8.47,48.1V87.43a6.08,6.08,0,0,0,6.07,6.07H85.46a6.08,6.08,0,0,0,6.07-6.07ZM86.7,62.78v10a4.59,4.59,0,0,1-3.16,4.36,13.27,13.27,0,0,0-8.74,9.62,2.5,2.5,0,0,1-2.44,1.95H27.64a2.5,2.5,0,0,1-2.44-1.95,13.26,13.26,0,0,0-10-10,2.5,2.5,0,0,1-1.95-2.44V61.2a2.5,2.5,0,0,1,1.95-2.44,13.26,13.26,0,0,0,10-10,2.5,2.5,0,0,1,2.44-1.95H72.36A2.5,2.5,0,0,1,74.8,48.8a13.27,13.27,0,0,0,8.74,9.62A4.59,4.59,0,0,1,86.7,62.78Zm-5,.3A18.32,18.32,0,0,1,70.48,51.86h-41A18.33,18.33,0,0,1,18.3,63.08v9.37A18.33,18.33,0,0,1,29.52,83.67h41A18.32,18.32,0,0,1,81.7,72.45Z"/></svg>