<svg fill="#ffa500" xmlns="http://www.w3.org/2000/svg" xmlns:xlink="http://www.w3.org/1999/xlink" version="1.2" baseProfile="tiny" x="0px" y="0px" viewBox="0 0 100 100" xml:space="preserve"><polygon points="13.75,73.75 7.5,92.5 26.25,86.25  "/><path d="M91.036,14.393l-5.429-5.429c-1.953-1.953-5.118-1.953-7.071,0L73.75,13.75l12.5,12.5l4.785-4.785l0,0   C92.988,19.512,92.988,16.346,91.036,14.393z"/><polygon points="72.5,57.5 68.964,53.964 67.285,52.285 57.285,62.285 60.518,65.518 55.518,70.518 57.5,72.5 59.482,74.482    64.482,69.482 68.018,73.018 63.018,78.018 66.982,81.982 71.982,76.982 75.518,80.518 70.518,85.518 77.5,92.5 92.5,77.5  "/><polygon points="19.482,24.482 23.018,28.018 18.018,33.018 21.982,36.982 26.982,31.982 30.518,35.518 25.518,40.518 27.5,42.5    29.482,44.482 34.482,39.482 38.018,43.018 33.018,48.018 36.25,51.25 17.286,70.214 29.786,82.714 48.75,63.75 48.75,63.75    63.75,48.75 63.75,48.75 82.714,29.786 70.214,17.286 51.25,36.25 46.036,31.036 42.5,27.5 22.5,7.5 7.5,22.5 14.482,29.482  "/></svg>
